<?xml version="1.0" standalone="no"?>
<!DOCTYPE svg PUBLIC "-//W3C//DTD SVG 20010904//EN"
 "http://www.w3.org/TR/2001/REC-SVG-20010904/DTD/svg10.dtd">
<svg version="1.0" xmlns="http://www.w3.org/2000/svg"
 width="18.000000pt" height="18.000000pt" viewBox="0 0 18.000000 18.000000"
 preserveAspectRatio="xMidYMid meet">

<g transform="translate(0.000000,18.000000) scale(0.100000,-0.100000)"
fill="#000000" stroke="none">
<path d="M0 90 l0 -90 90 0 90 0 0 90 0 90 -90 0 -90 0 0 -90z m85 25 l30 -25
-30 -25 c-16 -13 -33 -24 -37 -25 -5 0 -8 23 -8 50 0 28 3 50 8 50 4 -1 21
-12 37 -25z m55 -25 c0 -27 -4 -50 -10 -50 -5 0 -10 23 -10 50 0 28 5 50 10
50 6 0 10 -22 10 -50z"/>
</g>
</svg>
